<svg width="126" height="133" viewBox="0 0 126 133" fill="none" xmlns="http://www.w3.org/2000/svg">
<path d="M19.5286 22.2706C29.142 21.5626 38.8315 20.1186 48.4233 19.0905C69.734 16.8062 91.025 14.5939 112.375 12.688C115.865 12.3764 119.654 11.829 123.187 12.052C124.703 12.1477 123.722 13.2693 123.251 14.0448C116.907 24.4841 109.584 33.4654 100.732 42.0081C76.8514 65.0536 49.347 84.0434 24.6039 106.139C24.2515 106.454 -0.783329 129.045 2.25583 130.753C3.44141 131.419 6.35374 130.55 7.33105 130.35C17.8276 128.204 28.3081 125.967 38.8059 123.82C64.5667 118.553 90.1499 113.991 116.256 110.803" stroke="#2FFF76" stroke-width="3" stroke-linecap="round"/>
<path d="M88.7532 127.831C87.5844 127.831 86.5422 127.734 85.6266 127.539C84.711 127.364 84.0779 127.188 83.7273 127.013L85.4805 120.935C87.1558 121.364 88.6364 121.519 89.9221 121.403C91.2078 121.286 92.3474 120.711 93.3409 119.679C94.3539 118.666 95.2792 117.019 96.1169 114.74L97.4026 111.234L80.8052 66.1169H88.2857L100.675 101.883H101.143L113.532 66.1169H121.013L101.961 117.545C101.104 119.864 100.042 121.782 98.776 123.302C97.5097 124.841 96.039 125.981 94.3636 126.721C92.7078 127.461 90.8377 127.831 88.7532 127.831Z" fill="#2F94FF"/>
<path d="M17.4545 35.1169L28.2078 53.4675L38.961 35.1169H46.9091L32.4156 57.5584L46.9091 80H38.961L28.2078 62.5844L17.4545 80H9.50649L23.7662 57.5584L9.50649 35.1169H17.4545Z" fill="#FF2F3B"/>
</svg>
